# AST/ASF file generated using VICON BodyLanguage
# -----------------------------------------------
:version 1.10
:name VICON
:units
  mass 1.0
  length 0.45
  angle deg
:documentation
   .ast/.asf automatically generated from VICON data using
   VICON BodyBuilder and BodyLanguage model FoxedUp or BRILLIANT.MOD
:root
   order TX TY TZ RX RY RZ
   axis XYZ
   position 0 0 0  
   orientation 0 0 0 
:bonedata
  begin
     id 1 
     name lhipjoint
     direction 0.646657 -0.683706 0.338203 
     length 2.4948 
     axis 0 0 0  XYZ
  end
  begin
     id 2 
     name lfemur
     direction 0.34202 -0.939693 0  
     length 6.79491  
     axis 0 0 20  XYZ
    dof rx ry rz
    limits (-160.0 20.0)
           (-70.0 70.0)
           (-60.0 70.0)
  end
  begin
     id 3 
     name ltibia
     direction 0.34202 -0.939693 0   
     length 7.56807   
     axis 0 0 20   XYZ
    dof rx
    limits (-10.0 170.0)
  end
  begin
     id 4 
     name lfoot
     direction 0.0679796 -0.186772 0.980048   
     length 2.53018   
     axis -90 7.62852e-016 20   XYZ
    dof rx rz
    limits (-45.0 90.0)
           (-70.0 20.0)
  end
  begin
     id 5 
     name ltoes
     direction 1.53625e-011 -4.21881e-011 1   
     length 1.26912   
     axis -90 7.62852e-016 20   XYZ
    dof rx
    limits (-90.0 20.0)
  end
  begin
     id 6 
     name rhipjoint
     direction -0.618868 -0.704065 0.348274   
     length 2.42265  
     axis 0 0 0  XYZ 
  end
  begin
     id 7 
     name rfemur
     direction -0.34202 -0.939693 0   
     length 6.73814   
     axis 0 0 -20   XYZ
    dof rx ry rz
    limits (-160.0 20.0)
           (-70.0 70.0)
           (-70.0 60.0)
  end
  begin
     id 8 
     name rtibia
     direction -0.34202 -0.939693 0   
     length 7.66799   
     axis 0 0 -20   XYZ
    dof rx
    limits (-10.0 170.0)
 end
 begin
     id 9 
     name rfoot
     direction -0.0727352 -0.199838 0.977125   
     length 2.57224  
     axis -90 -7.62852e-016 -20   XYZ
    dof rx rz
    limits (-45.0 90.0)
           (-20.0 70.0)
  end
  begin
     id 10 
     name rtoes
     direction -1.53501e-011 -4.21858e-011 1   
     length 1.28858   
     axis -90 -7.62852e-016 -20   XYZ
    dof rx
    limits (-90.0 20.0)
  end
  begin
     id 11 
     name lowerback
     direction -0.0172471 0.995767 -0.0902851   
     length 2.20206   
     axis 0 0 0   XYZ
    dof rx ry rz
    limits (-20.0 45.0)
           (-30.0 30.0)
           (-30.0 30.0)
  end
  begin
     id 12 
     name upperback
     direction -0.000110737 0.999714 0.0239043   
     length 2.19523   
     axis 0 0 0   XYZ
    dof rx ry rz
    limits (-20.0 45.0)
           (-30.0 30.0)
           (-30.0 30.0)
  end
  begin
     id 13 
     name thorax
     direction 0.00704869 0.997783 0.0661741   
     length 2.21977   
     axis 0 0 0   XYZ
    dof rx ry rz
    limits (-20.0 45.0)
           (-30.0 30.0)
           (-30.0 30.0)
  end
  begin
     id 14 
     name lowerneck
     direction -0.00407501 0.995527 0.0943846   
     length 1.83142   
     axis 0 0 0   XYZ
    dof rx ry rz
    limits (-20.0 45.0)
           (-30.0 30.0)
           (-30.0 30.0)
  end
  begin
     id 15 
     name upperneck
     direction 0.0640586 0.986486 -0.150807   
     length 1.84616   
     axis 0 0 0   XYZ
    dof rx ry rz
    limits (-20.0 45.0)
           (-30.0 30.0)
           (-30.0 30.0)
  end
  begin
     id 16
     name head
     direction 0.0188017 0.99791 -0.0618239  
     length 1.85932  
     axis 0 0 0   XYZ
    dof rx ry rz
    limits (-20.0 45.0)
           (-30.0 30.0)
           (-30.0 30.0)
  end
  begin
     id 17 
     name lclavicle
     direction 0.976074 0.206905 0.066852  
     length 3.81043  
     axis 0 0 0   XYZ
    dof ry rz
    limits (-20.0 10.0)
           (0.0 20.0)
  end
  begin
     id 18 
     name lhumerus
     direction 1 -4.48971e-011 1.86916e-027   
     length 5.37587   
     axis 180 -30 -90   XYZ
    dof rx ry rz
    limits (-60.0 90.0)
           (-90.0 90.0)
           (-90.0 90.0)
  end
  begin
     id 19
     name lradius
     direction 1 -4.48968e-011 1.69187e-027   
     length 3.35977   
     axis 180 -30 -90   XYZ
    dof rx
    limits (-10.0 170.0)
  end
  begin
     id 20
     name lwrist
     direction 1 -4.48968e-011 5.8978e-027   
     length 1.67988   
     axis -3.27506e-015 90 90   XYZ
    dof ry
    limits (-180.0 0.0)
 end
  begin
     id 21 
     name lhand
     direction 1 -4.49028e-011 1.18071e-026   
     length 0.561859   
     axis -7.52654e-015 90 90   XYZ
    dof rx rz
    limits (-90.0 90.0)
           (-45.0 45.0)
  end
  begin
     id 22 
     name lfingers
     direction 1 -4.48927e-011 2.35758e-026   
     length 0.452985   
     axis -1.50534e-014 90 90   XYZ
    dof rx
    limits (0.0 90.0)
  end
  begin
     id 23
     name lthumb
     direction 0.707107 -6.34898e-011 0.707107   
     length 0.650399   
     axis -90 45 5.69224e-014   XYZ
    dof rx rz
    limits (-45.0 45.0)
           (-45.0 45.0)
  end
  begin
     id 24 
     name rclavicle
     direction -0.988403 0.151789 0.00439714   
     length 3.6942  
     axis 0 0 0   XYZ 
    dof ry rz
    limits (-10.0 20.0)
           (-20.0 0.0)
  end
  begin
     id 25 
     name rhumerus
     direction -1 -4.48978e-011 1.62495e-027  
     length 5.22819   
     axis 180 30 90   XYZ
    dof rx ry rz
    limits (-90.0 60.0)
           (-90.0 90.0)
           (-90.0 90.0)
  end
  begin
     id 26 
     name rradius
     direction -1 -4.48961e-011 3.47796e-027   
     length 3.40764   
     axis 180 30 90   XYZ
    dof rx
    limits (-10.0 170.0)
  end
  begin
     id 27 
     name rwrist
     direction -1 -4.48949e-011 5.89602e-027   
     length 1.70382   
     axis -3.27506e-015 -90 -90   XYZ
    dof ry
    limits (-180.0 0.0)
  end
  begin
     id 28
     name rhand
     direction -1 -4.48977e-011 1.17973e-026   
     length 0.583255   
     axis -7.52654e-015 -90 -90   XYZ
    dof rx rz
    limits (-90.0 90.0)
           (-45.0 45.0)
  end
  begin
     id 29
     name rfingers
     direction -1 -4.49099e-011 2.36408e-026   
     length 0.470235   
     axis -1.50534e-014 -90 -90   XYZ
    dof rx
    limits (0.0 90.0)
  end
  begin
     id 30
     name rthumb
     direction -0.707107 -6.35011e-011 0.707107   
     length 0.675167   
     axis -90 -45 -5.69224e-014   XYZ
    dof rx rz
    limits (-45.0 45.0)
           (-45.0 45.0)
  end
:hierarchy
  begin
    root lhipjoint rhipjoint lowerback
    lhipjoint lfemur
    lfemur ltibia
    ltibia lfoot
    lfoot ltoes
    rhipjoint rfemur
    rfemur rtibia
    rtibia rfoot
    rfoot rtoes
    lowerback upperback
    upperback thorax
    thorax lowerneck lclavicle rclavicle
    lowerneck upperneck
    upperneck head
    lclavicle lhumerus
    lhumerus lradius
    lradius lwrist
    lwrist lhand lthumb
    lhand lfingers
    rclavicle rhumerus
    rhumerus rradius
    rradius rwrist
    rwrist rhand rthumb
    rhand rfingers
  end

#!OML:ASF G:\JayActor3\Patient Classification 1\Patient 1\Session 2\male.ASF
:FULLY-SPECIFIED
:DEGREES
167
root 49.8096 16.6028 -7.23776 29.0268 -85.9722 -28.4838
lowerback -2.39103 0.466153 -0.156284
upperback 3.49365 0.570283 0.662348
thorax 4.93923 0.250482 0.808959
lowerneck -9.24115 -3.71843 -4.85641
upperneck 0.584741 -4.79297 8.11413
head 2.18831 -2.22874 3.30234
rclavicle -6.07536e-015 3.97569e-016
rhumerus -29.3532 -7.61579 -83.4552
rradius 26.8821
rwrist 0.289165
rhand -21.4462 8.1317
rfingers 7.12502
rthumb 4.94356 -21.7906
lclavicle -6.07536e-015 3.97569e-016
lhumerus -25.9221 5.13214 87.4333
lradius 24.5196
lwrist 7.38864
lhand -20.7556 17.0878
lfingers 7.12502
lthumb 5.61033 46.9935
rfemur -10.0045 -0.335086 21.0179
rtibia 35.1607
rfoot -26.4245 -8.5138
rtoes 17.094
lfemur -6.14699 1.7015 -17.6636
ltibia 26.6793
lfoot -19.2384 14.5337
ltoes -6.26713
168
root 49.8092 16.6029 -7.2379 29.0593 -85.9745 -28.5178
lowerback -2.39261 0.471022 -0.152061
upperback 3.49332 0.576771 0.658812
thorax 4.93976 0.253943 0.803379
lowerneck -9.22932 -3.72291 -4.85187
upperneck 0.580751 -4.80018 8.12467
head 2.18557 -2.23239 3.30482
rclavicle -8.93289e-015 2.18663e-015
rhumerus -29.3599 -7.63979 -83.4619
rradius 26.8839
rwrist 0.294564
rhand -21.4425 8.13364
rfingers 7.12502
rthumb 4.94713 -21.7886
lclavicle -8.93289e-015 2.18663e-015
lhumerus -25.9176 5.16832 87.4251
lradius 24.5185
lwrist 7.37489
lhand -20.7531 17.073
lfingers 7.12502
lthumb 5.6127 46.9787
rfemur -10.0008 -0.334661 21.0194
rtibia 35.1583
rfoot -26.4246 -8.51437
rtoes 17.0829
lfemur -6.14331 1.69426 -17.664
ltibia 26.6793
lfoot -19.241 14.5463
ltoes -6.27074
169
root 49.809 16.6029 -7.23812 29.0602 -85.9752 -28.5186
lowerback -2.3958 0.474823 -0.150643
upperback 3.49358 0.581964 0.655173
thorax 4.94183 0.256651 0.799201
lowerneck -9.22137 -3.72674 -4.84671
upperneck 0.578401 -4.80657 8.13499
head 2.18401 -2.23553 3.30713
rclavicle -5.20567e-015 -6.95746e-015
rhumerus -29.3625 -7.66497 -83.4693
rradius 26.8843
rwrist 0.301997
rhand -21.4382 8.13624
rfingers 7.12502
rthumb 4.9512 -21.7859
lclavicle -5.20567e-015 -6.95746e-015
lhumerus -25.9149 5.1923 87.4205
lradius 24.5233
lwrist 7.37003
lhand -20.7554 17.0599
lfingers 7.12502
lthumb 5.61056 46.9656
rfemur -9.99968 -0.331841 21.0206
rtibia 35.1569
rfoot -26.4254 -8.51938
rtoes 17.0737
lfemur -6.14169 1.68661 -17.6651
ltibia 26.6782
lfoot -19.2431 14.5556
ltoes -6.26581
170
root 49.8087 16.6029 -7.23838 29.0414 -85.9742 -28.4988
lowerback -2.39877 0.476888 -0.150611
upperback 3.49461 0.584884 0.651517
thorax 4.94459 0.258169 0.795636
lowerneck -9.21866 -3.72977 -4.83953
upperneck 0.57785 -4.812 8.14373
head 2.18382 -2.2381 3.30852
rclavicle 1.08835e-014 -3.97569e-016
rhumerus -29.3622 -7.6859 -83.4795
rradius 26.8861
rwrist 0.307274
rhand -21.4324 8.14063
rfingers 7.12502
rthumb 4.95685 -21.7814
lclavicle 1.08835e-014 -3.97569e-016
lhumerus -25.9124 5.20634 87.4191
lradius 24.5324
lwrist 7.37269
lhand -20.7596 17.0591
lfingers 7.12502
lthumb 5.60643 46.9649
rfemur -9.99983 -0.327668 21.0223
rtibia 35.1564
rfoot -26.4286 -8.52693
rtoes 17.0716
lfemur -6.14119 1.67817 -17.6659
ltibia 26.6758
lfoot -19.2436 14.5638
ltoes -6.2609
171
root 49.8085 16.6028 -7.23862 29.0124 -85.9732 -28.4695
lowerback -2.40277 0.477992 -0.151477
upperback 3.49684 0.586537 0.647868
thorax 4.94921 0.259006 0.792516
lowerneck -9.2178 -3.73138 -4.83434
upperneck 0.57805 -4.8154 8.1549
head 2.18424 -2.23957 3.31123
rclavicle -1.03989e-014 -1.78906e-015
rhumerus -29.3596 -7.70063 -83.4921
rradius 26.887
rwrist 0.31137
rhand -21.4252 8.1493
rfingers 7.12502
rthumb 4.96376 -21.7726
lclavicle -1.03989e-014 -1.78906e-015
lhumerus -25.912 5.20905 87.4208
lradius 24.5457
lwrist 7.38172
lhand -20.7623 17.0608
lfingers 7.12502
lthumb 5.60388 46.9667
rfemur -9.99921 -0.324538 21.0227
rtibia 35.1567
rfoot -26.4332 -8.53024
rtoes 17.0816
lfemur -6.13935 1.6726 -17.667
ltibia 26.6728
lfoot -19.2437 14.5693
ltoes -6.26276
172
root 49.8082 16.6027 -7.23885 28.9696 -85.9718 -28.4266
lowerback -2.40847 0.478503 -0.154062
upperback 3.50191 0.587386 0.644865
thorax 4.95775 0.259327 0.791011
lowerneck -9.22349 -3.73322 -4.82797
upperneck 0.578532 -4.819 8.16399
head 2.18584 -2.24106 3.31293
rclavicle 5.80203e-015 -1.49089e-015
rhumerus -29.3527 -7.71131 -83.5061
rradius 26.8898
rwrist 0.314506
rhand -21.4169 8.16145
rfingers 7.12502
rthumb 4.97183 -21.7602
lclavicle 5.80203e-015 -1.49089e-015
lhumerus -25.9073 5.20552 87.4259
lradius 24.5588
lwrist 7.39162
lhand -20.7598 17.0613
lfingers 7.12502
lthumb 5.60631 46.9672
rfemur -9.99866 -0.324123 21.0221
rtibia 35.1575
rfoot -26.4368 -8.53203
rtoes 17.0943
lfemur -6.13775 1.66882 -17.6683
ltibia 26.6699
lfoot -19.242 14.573
ltoes -6.26722
173
root 49.8081 16.6025 -7.23909 28.9409 -85.9706 -28.3989
lowerback -2.41347 0.478776 -0.156144
upperback 3.50758 0.587851 0.642374
thorax 4.96652 0.259455 0.789727
lowerneck -9.22896 -3.73513 -4.82351
upperneck 0.579243 -4.82255 8.17406
head 2.18759 -2.24251 3.31534
rclavicle 9.33046e-015 3.27995e-015
rhumerus -29.3466 -7.71558 -83.5224
rradius 26.8955
rwrist 0.313739
rhand -21.4065 8.17513
rfingers 7.12502
rthumb 4.98182 -21.7463
lclavicle 9.33046e-015 3.27995e-015
lhumerus -25.902 5.19997 87.4322
lradius 24.5697
lwrist 7.40022
lhand -20.7554 17.0641
lfingers 7.12502
lthumb 5.61048 46.9698
rfemur -9.99689 -0.325073 21.0219
rtibia 35.1582
rfoot -26.4398 -8.53018
rtoes 17.1121
lfemur -6.13603 1.6695 -17.6681
ltibia 26.6682
lfoot -19.2381 14.5749
ltoes -6.28799
174
root 49.8079 16.6023 -7.23938 28.9137 -85.9682 -28.3743
lowerback -2.417 0.478978 -0.159083
upperback 3.51384 0.588198 0.640877
thorax 4.97507 0.259463 0.789932
lowerneck -9.23515 -3.73755 -4.81996
upperneck 0.580889 -4.82669 8.1839
head 2.18985 -2.24423 3.31781
rclavicle -5.11871e-015 -1.09332e-015
rhumerus -29.3409 -7.7157 -83.5394
rradius 26.9028
rwrist 0.309681
rhand -21.3987 8.18424
rfingers 7.12502
rthumb 4.98937 -21.737
lclavicle -5.11871e-015 -1.09332e-015
lhumerus -25.8965 5.19265 87.4402
lradius 24.5786
lwrist 7.4099
lhand -20.7482 17.0581
lfingers 7.12502
lthumb 5.61751 46.9636
rfemur -9.99325 -0.327646 21.0225
rtibia 35.1588
rfoot -26.4436 -8.52851
rtoes 17.1247
lfemur -6.13344 1.67666 -17.6658
ltibia 26.6677
lfoot -19.2329 14.5695
ltoes -6.30842
175
root 49.8077 16.602 -7.23967 28.8932 -85.9666 -28.3574
lowerback -2.41936 0.479737 -0.162371
upperback 3.52004 0.589265 0.640234
thorax 4.98286 0.259797 0.79125
lowerneck -9.23889 -3.74147 -4.81684
upperneck 0.583404 -4.8327 8.19083
head 2.19199 -2.24697 3.31927
rclavicle -6.32384e-015 3.8763e-015
rhumerus -29.3372 -7.71309 -83.5559
rradius 26.9135
rwrist 0.30324
rhand -21.3935 8.18869
rfingers 7.12502
rthumb 4.99437 -21.7324
lclavicle -6.32384e-015 3.8763e-015
lhumerus -25.8904 5.19316 87.4486
lradius 24.5838
lwrist 7.41425
lhand -20.7429 17.0514
lfingers 7.12502
lthumb 5.62259 46.9568
rfemur -9.98886 -0.33019 21.0231
rtibia 35.1592
rfoot -26.4451 -8.52857
rtoes 17.1214
lfemur -6.13073 1.68652 -17.6631
ltibia 26.6681
lfoot -19.2251 14.5635
ltoes -6.33859
176
root 49.8076 16.6017 -7.24001 28.8747 -85.965 -28.3431
lowerback -2.42062 0.480275 -0.166286
upperback 3.52695 0.590023 0.640069
thorax 4.99075 0.259933 0.793387
lowerneck -9.24396 -3.74579 -4.81189
upperneck 0.58657 -4.83929 8.19455
head 2.19443 -2.25002 3.3192
rclavicle -1.73937e-016 -1.59028e-015
rhumerus -29.333 -7.70845 -83.5731
rradius 26.9262
rwrist 0.294551
rhand -21.3933 8.18727
rfingers 7.12502
rthumb 4.99457 -21.7339
lclavicle -1.73937e-016 -1.59028e-015
lhumerus -25.8823 5.20168 87.4563
lradius 24.5866
lwrist 7.41612
lhand -20.7429 17.0444
lfingers 7.12502
lthumb 5.62257 46.9498
rfemur -9.98385 -0.332072 21.0242
rtibia 35.1595
rfoot -26.4469 -8.52959
rtoes 17.1097
lfemur -6.12743 1.69858 -17.6594
ltibia 26.6685
lfoot -19.2181 14.5541
ltoes -6.37134
177
root 49.8074 16.6015 -7.24035 28.8466 -85.9642 -28.3202
lowerback -2.42173 0.480386 -0.172615
upperback 3.53531 0.590246 0.640902
thorax 5.00006 0.25967 0.797882
lowerneck -9.25176 -3.75049 -4.80809
upperneck 0.59239 -4.84624 8.19693
head 2.19827 -2.25318 3.31886
rclavicle -1.24365e-014 -9.14409e-015
rhumerus -29.3274 -7.7004 -83.5898
rradius 26.9399
rwrist 0.284509
rhand -21.3984 8.17947
rfingers 7.12502
rthumb 4.98965 -21.7418
lclavicle -1.24365e-014 -9.14409e-015
lhumerus -25.8729 5.22022 87.4641
lradius 24.5874
lwrist 7.41554
lhand -20.7494 17.0425
lfingers 7.12502
lthumb 5.61632 46.9481
rfemur -9.97788 -0.333163 21.0242
rtibia 35.1601
rfoot -26.4483 -8.52868
rtoes 17.1012
lfemur -6.12215 1.71048 -17.6566
ltibia 26.6683
lfoot -19.2138 14.5424
ltoes -6.39764
